<?xml version="1.0" encoding="utf-8"?>
<!-- Generator: Adobe Illustrator 25.1.0, SVG Export Plug-In . SVG Version: 6.00 Build 0)  -->
<svg version="1.1" xmlns="http://www.w3.org/2000/svg" xmlns:xlink="http://www.w3.org/1999/xlink" x="0px" y="0px"
	 viewBox="0 0 500 500" style="enable-background:new 0 0 500 500;" xml:space="preserve">
<style type="text/css">
	.st0{fill:#FFFFFF;}
	.st1{fill:#219097;}
	.st2{fill:#CDCDCD;}
</style>
<g id="Capa_2">
	<path class="st0" d="M396.22,500H103.78C46.7,500,0,453.3,0,396.22V103.78C0,46.7,46.7,0,103.78,0h292.44
		C453.3,0,500,46.7,500,103.78v292.44C500,453.3,453.3,500,396.22,500z"/>
</g>
<g id="Capa_1">
	<g>
		<polygon class="st1" points="23.35,151.01 23.35,323.26 38.35,323.26 38.35,323.26 38.35,151.01 		"/>
		<path class="st1" d="M84.8,235.55h4.45c12.85,0,23.1,3.83,30.76,11.49s11.49,17.91,11.49,30.76v0.74
			c0,12.85-3.83,23.1-11.49,30.76s-17.91,11.49-30.76,11.49H84.8V235.55z M84.8,151.79h6.42c12.19,0,21.95,3.66,29.28,10.99
			c7.33,7.33,11,17.09,11,29.28c0,12.52-3.67,22.48-11,29.9c-7.33,7.41-17.09,11.12-29.28,11.12h-6.42L84.8,151.79L84.8,151.79
			L84.8,151.79z M68.99,151.01v172.25h34.35c13.17,0,23.72-3.95,31.62-11.86c7.91-7.91,11.86-18.45,11.86-31.63
			c0-13.83-3.79-24.75-11.37-32.74c-7.58-7.99-17.62-12.23-30.14-12.72c12.51-0.16,22.56-4.04,30.15-11.63
			c7.58-7.59,11.37-17.71,11.36-30.38c0-13.17-3.83-23.63-11.49-31.38c-4.71-4.77-10.61-8.2-17.09-9.92H68.99z"/>
		<polygon class="st1" points="168.56,151.01 168.56,323.26 168.56,323.26 184.38,323.26 184.38,323.26 184.38,151.01 		"/>
		<polygon class="st1" points="206.37,151.01 206.37,154.26 273.08,154.26 203.9,318.32 203.9,323.26 203.9,323.26 290.37,323.26 
			290.37,318.32 220.95,318.32 290.37,154.26 290.37,151.01 		"/>
		<polygon class="st1" points="299.52,151.01 299.52,154.26 366.23,154.26 297.05,318.32 297.05,323.26 297.05,323.26 
			383.53,323.26 383.53,318.32 314.1,318.32 383.53,154.26 383.53,151.01 		"/>
		<path class="st1" d="M431.71,164.88l20.51,110.44h-42.5L431.71,164.88z M426.93,151.01l-34.01,172.25h7.41l8.4-42.74h44.48
			l8.15,42.74h16.8l-32.3-172.25H426.93z"/>
		<path class="st2" d="M33.65,347.23c-1.22,1.16-2.88,1.74-4.98,1.74c-0.98,0.02-1.95-0.14-2.88-0.47
			c-1.64-0.57-2.92-1.85-3.49-3.49c-0.62-1.87-0.62-3.89,0-5.76c0.57-1.64,1.85-2.93,3.49-3.5c0.92-0.33,1.9-0.48,2.88-0.47
			c1.8,0,3.28,0.44,4.44,1.31l-0.75,1c-0.95-0.71-2.17-1.06-3.68-1.06c-1.82,0-3.2,0.48-4.15,1.44c-0.95,0.96-1.43,2.34-1.43,4.15
			c0,1.82,0.48,3.21,1.43,4.17s2.34,1.43,4.15,1.43c0.79,0.01,1.58-0.11,2.34-0.36c0.66-0.22,1.26-0.58,1.76-1.06L33.65,347.23z"/>
		<path class="st2" d="M57.06,343.98l-3.29-6.64l-3.29,6.64H57.06z M57.67,345.24h-7.79l-1.74,3.63h-1.42l6.5-13.21
			c0.14-0.31,0.49-0.45,0.8-0.31c0.14,0.06,0.25,0.17,0.31,0.31l6.53,13.21h-1.38L57.67,345.24z"/>
		<polygon class="st2" points="83.58,335.42 83.58,336.66 79.34,336.66 79.34,348.87 78.08,348.87 78.08,336.66 73.85,336.66 
			73.85,335.42 		"/>
		<path class="st2" d="M104.93,331.72h-1.49l-0.99,2.39h1.11L104.93,331.72z M106.98,343.99l-3.27-6.64l-3.29,6.64H106.98z
			 M97.99,348.87h-1.38l6.51-13.21c0.1-0.23,0.33-0.37,0.58-0.36c0.24-0.01,0.46,0.14,0.55,0.36l6.5,13.21h-1.42l-1.75-3.63h-7.78
			L97.99,348.87z"/>
		<path class="st2" d="M133.6,347.61l-0.38,1.26h-7.85c-0.34-0.01-0.62-0.29-0.63-0.63v-12.81h1.26v12.19L133.6,347.61L133.6,347.61
			z"/>
		<path class="st2" d="M153.55,336.55c-1.82,0-3.21,0.48-4.16,1.44c-0.95,0.96-1.43,2.34-1.43,4.15c0,1.82,0.48,3.21,1.43,4.17
			c0.95,0.96,2.34,1.44,4.16,1.43c1.82,0,3.21-0.48,4.16-1.43s1.43-2.34,1.43-4.17c0-1.81-0.48-3.19-1.43-4.15
			C156.76,337.03,155.37,336.55,153.55,336.55 M153.55,348.98c-0.98,0.02-1.96-0.13-2.88-0.45c-1.63-0.57-2.92-1.86-3.49-3.49
			c-0.62-1.87-0.62-3.89,0-5.75c0.57-1.64,1.85-2.93,3.49-3.5c1.87-0.62,3.89-0.62,5.76,0c0.81,0.29,1.54,0.74,2.15,1.35
			c0.6,0.61,1.06,1.35,1.35,2.16c0.62,1.87,0.62,3.89,0,5.75c-0.29,0.8-0.75,1.54-1.35,2.15c-0.61,0.6-1.34,1.06-2.15,1.35
			c-0.92,0.33-1.9,0.48-2.88,0.47"/>
		<path class="st2" d="M185.35,341.51v5.26c0,0.17-0.07,0.34-0.18,0.47c-1.22,1.16-2.88,1.74-4.97,1.74
			c-0.98,0.02-1.96-0.13-2.88-0.45c-1.64-0.57-2.93-1.86-3.5-3.5c-0.62-1.87-0.62-3.89,0-5.75c0.57-1.64,1.85-2.93,3.49-3.5
			c0.92-0.32,1.9-0.48,2.88-0.47c1.8,0,3.28,0.44,4.44,1.31l-0.75,1c-0.95-0.71-2.17-1.06-3.68-1.06c-1.82,0-3.21,0.48-4.16,1.44
			c-0.95,0.96-1.43,2.34-1.42,4.15c0,1.82,0.48,3.21,1.43,4.17c0.95,0.96,2.34,1.44,4.16,1.43c1.64,0,2.94-0.41,3.89-1.24v-4.62
			L185.35,341.51z"/>
		<path class="st2" d="M206.01,336.55c-1.82,0-3.21,0.48-4.16,1.44c-0.95,0.96-1.43,2.34-1.42,4.15c0,1.82,0.47,3.21,1.42,4.17
			c0.95,0.96,2.34,1.44,4.16,1.43c1.82,0,3.21-0.48,4.16-1.43c0.95-0.96,1.43-2.34,1.43-4.17c0-1.81-0.48-3.19-1.43-4.15
			C209.22,337.03,207.83,336.55,206.01,336.55 M206.01,348.98c-0.98,0.02-1.96-0.13-2.88-0.45c-1.63-0.57-2.92-1.86-3.49-3.49
			c-0.62-1.87-0.62-3.89,0-5.75c0.57-1.64,1.85-2.93,3.49-3.5c1.87-0.62,3.89-0.62,5.77,0c1.64,0.57,2.92,1.86,3.49,3.5
			c0.62,1.87,0.62,3.89,0,5.75c-0.57,1.63-1.86,2.92-3.49,3.49c-0.92,0.33-1.9,0.48-2.88,0.47"/>
		<path class="st2" d="M259.87,348.87h-1.26v-10.7l-4.92,8.11c-0.06,0.09-0.14,0.17-0.24,0.23c-0.09,0.05-0.2,0.08-0.3,0.08
			c-0.22,0-0.42-0.12-0.53-0.31l-4.91-8.11v10.7h-1.25v-12.94c0.01-0.35,0.3-0.63,0.65-0.62c0.07,0,0.14,0.01,0.21,0.04
			c0.13,0.05,0.24,0.14,0.31,0.27l5.53,9.15l5.55-9.15c0.07-0.12,0.18-0.21,0.31-0.27c0.13-0.05,0.27-0.05,0.4,0
			c0.13,0.04,0.25,0.11,0.33,0.22c0.09,0.11,0.14,0.24,0.14,0.38L259.87,348.87L259.87,348.87z"/>
		<path class="st2" d="M283.78,335.42v9.84c0.05,1.07-0.43,2.09-1.28,2.73c-0.85,0.65-2.05,0.98-3.58,0.98
			c-1.53,0-2.72-0.32-3.58-0.98c-0.85-0.65-1.32-1.67-1.27-2.74v-9.83h1.26v9.84c-0.02,0.46,0.11,0.91,0.37,1.29
			c0.24,0.32,0.55,0.58,0.92,0.76c0.37,0.18,0.77,0.3,1.18,0.35c0.75,0.11,1.51,0.11,2.26,0c0.41-0.05,0.8-0.17,1.17-0.35
			c0.36-0.18,0.68-0.44,0.93-0.76c0.27-0.38,0.4-0.83,0.38-1.29v-9.84H283.78L283.78,335.42z"/>
		<path class="st2" d="M306.93,347.61l-0.37,1.26h-7.85c-0.34-0.01-0.62-0.29-0.63-0.63v-12.81h1.26v12.19L306.93,347.61
			L306.93,347.61z"/>
		<polygon class="st2" points="329.82,335.42 329.82,336.66 325.58,336.66 325.58,348.87 324.33,348.87 324.33,336.66 
			320.09,336.66 320.09,335.42 		"/>
		<rect x="343.93" y="335.42" class="st2" width="1.26" height="13.45"/>
		<path class="st2" d="M373.74,348.87h-1.26v-10.7l-4.92,8.11c-0.06,0.09-0.14,0.17-0.24,0.23c-0.09,0.05-0.2,0.08-0.3,0.08
			c-0.22,0-0.42-0.12-0.53-0.31l-4.91-8.11v10.7h-1.26v-12.94c-0.02-0.28,0.17-0.54,0.45-0.59c0.13-0.05,0.27-0.05,0.4,0
			c0.13,0.05,0.24,0.14,0.32,0.27l5.53,9.15l5.55-9.15c0.07-0.12,0.18-0.22,0.31-0.27c0.13-0.05,0.27-0.05,0.4,0
			c0.13,0.04,0.25,0.11,0.33,0.22c0.09,0.11,0.14,0.24,0.14,0.38L373.74,348.87L373.74,348.87L373.74,348.87z"/>
		<path class="st2" d="M397.89,343.98l-3.28-6.64l-3.29,6.64H397.89z M398.5,345.24h-7.79l-1.74,3.63h-1.42l6.48-13.21
			c0.14-0.31,0.5-0.45,0.81-0.31c0.14,0.06,0.25,0.17,0.31,0.31l6.53,13.21h-1.38L398.5,345.24z"/>
		<path class="st2" d="M416.66,342.19h5.06c0.36,0,0.73-0.07,1.06-0.22c0.33-0.14,0.63-0.34,0.88-0.59
			c0.25-0.25,0.45-0.55,0.59-0.87c0.14-0.34,0.22-0.7,0.22-1.06c0.01-0.73-0.28-1.43-0.8-1.95c-0.25-0.25-0.55-0.44-0.88-0.58
			c-0.34-0.14-0.7-0.22-1.06-0.22h-5.06v5.5L416.66,342.19z M425.15,348.87l-4.36-5.42h-4.13v5.42h-1.27v-12.8
			c0.01-0.34,0.29-0.62,0.63-0.63h5.78c0.52,0.01,1.04,0.12,1.52,0.34c0.46,0.21,0.89,0.5,1.25,0.86c0.36,0.36,0.65,0.79,0.84,1.26
			c0.2,0.49,0.31,1.01,0.31,1.53c0,0.49-0.09,0.97-0.27,1.42c-0.34,0.88-0.97,1.61-1.79,2.07c-0.41,0.24-0.86,0.39-1.33,0.46
			l4.41,5.48L425.15,348.87L425.15,348.87z"/>
		<path class="st2" d="M450.95,347.23c-1.22,1.16-2.88,1.74-4.97,1.74c-0.98,0.02-1.96-0.14-2.88-0.47
			c-1.63-0.57-2.92-1.85-3.49-3.49c-0.62-1.87-0.62-3.89,0-5.76c0.57-1.64,1.85-2.93,3.49-3.5c0.93-0.33,1.9-0.48,2.88-0.47
			c1.79,0,3.27,0.44,4.43,1.31l-0.76,1c-0.94-0.71-2.17-1.06-3.68-1.06c-1.82,0-3.21,0.48-4.16,1.44c-0.95,0.96-1.43,2.34-1.43,4.15
			s0.48,3.21,1.43,4.17c0.95,0.96,2.34,1.44,4.16,1.44c0.79,0.01,1.58-0.11,2.33-0.36c0.66-0.22,1.26-0.58,1.76-1.06L450.95,347.23z
			"/>
		<path class="st2" d="M474.35,343.98l-3.28-6.64l-3.29,6.64H474.35z M474.96,345.24h-7.79l-1.74,3.63h-1.42l6.5-13.21
			c0.14-0.31,0.5-0.45,0.81-0.31c0.14,0.06,0.25,0.17,0.31,0.31l6.53,13.21h-1.38L474.96,345.24z"/>
	</g>
</g>
</svg>
