<?xml version="1.0" encoding="utf-8"?>
<!-- Generator: Adobe Illustrator 25.1.0, SVG Export Plug-In . SVG Version: 6.00 Build 0)  -->
<svg version="1.1" xmlns="http://www.w3.org/2000/svg" xmlns:xlink="http://www.w3.org/1999/xlink" x="0px" y="0px"
	 viewBox="0 0 500 500" style="enable-background:new 0 0 500 500;" xml:space="preserve">
<style type="text/css">
	.st0{fill:url(#SVGID_1_);}
	.st1{fill:#FFFFFF;}
	.st2{fill:#CDCDCD;}
</style>
<g id="Capa_2">
	<linearGradient id="SVGID_1_" gradientUnits="userSpaceOnUse" x1="470.4114" y1="249.1786" x2="33.8009" y2="250.8057">
		<stop  offset="0" style="stop-color:#12AEAE"/>
		<stop  offset="1" style="stop-color:#219097"/>
	</linearGradient>
	<path class="st0" d="M396.22,500H103.78C46.7,500,0,453.3,0,396.22V103.78C0,46.7,46.7,0,103.78,0h292.44
		C453.3,0,500,46.7,500,103.78v292.44C500,453.3,453.3,500,396.22,500z"/>
</g>
<g id="Capa_1">
	<g>
		<polygon class="st1" points="7.65,144.15 7.65,328.34 23.69,328.34 23.69,328.33 23.69,144.15 		"/>
		<path class="st1" d="M73.36,234.55h4.76c13.74,0,24.7,4.1,32.89,12.29s12.28,19.15,12.29,32.89v0.79c0,13.74-4.1,24.7-12.29,32.89
			S91.86,325.7,78.12,325.7h-4.76V234.55z M73.36,144.98h6.87c13.03,0,23.47,3.92,31.31,11.75s11.76,18.27,11.76,31.31
			c0,13.39-3.92,24.04-11.76,31.97s-18.27,11.89-31.3,11.89h-6.87L73.36,144.98L73.36,144.98L73.36,144.98z M56.45,144.15v184.18
			h36.73c14.09,0,25.36-4.23,33.81-12.68c8.46-8.46,12.68-19.73,12.68-33.82c0-14.79-4.05-26.46-12.15-35s-18.85-13.07-32.23-13.6
			c13.38-0.18,24.13-4.32,32.24-12.43s12.16-18.94,12.15-32.49c0-14.09-4.1-25.27-12.29-33.55c-5.04-5.1-11.34-8.76-18.27-10.61
			H56.45z"/>
		<polygon class="st1" points="162.92,144.15 162.92,328.33 162.92,328.34 179.83,328.34 179.83,328.34 179.83,144.15 		"/>
		<polygon class="st1" points="203.35,144.15 203.35,147.62 274.68,147.62 200.7,323.05 200.7,328.33 200.7,328.34 293.17,328.34 
			293.17,323.05 218.93,323.05 293.17,147.62 293.17,144.15 		"/>
		<polygon class="st1" points="302.95,144.15 302.95,147.62 374.28,147.62 300.3,323.05 300.3,328.33 300.3,328.34 392.78,328.34 
			392.78,323.05 318.54,323.05 392.78,147.62 392.78,144.15 		"/>
		<path class="st1" d="M444.29,158.99l21.93,118.09h-45.44L444.29,158.99z M439.19,144.15l-36.37,184.18h7.93l8.98-45.7h47.56
			l8.72,45.7h17.97l-34.54-184.18H439.19z"/>
		<path class="st2" d="M18.67,353.97c-1.3,1.24-3.08,1.86-5.32,1.86c-1.05,0.02-2.09-0.15-3.08-0.5c-1.75-0.61-3.13-1.98-3.74-3.73
			c-0.67-2-0.67-4.16,0-6.15c0.61-1.75,1.98-3.13,3.74-3.74c0.99-0.35,2.03-0.52,3.08-0.5c1.92,0,3.5,0.47,4.74,1.4l-0.81,1.07
			c-1.01-0.76-2.32-1.14-3.93-1.14c-1.95,0-3.43,0.51-4.44,1.54s-1.53,2.5-1.53,4.43c0,1.95,0.51,3.43,1.53,4.45
			c1.02,1.02,2.5,1.53,4.44,1.53c0.85,0.01,1.69-0.12,2.5-0.38c0.7-0.23,1.34-0.62,1.88-1.14L18.67,353.97z"/>
		<path class="st2" d="M43.7,350.49l-3.51-7.1l-3.51,7.1H43.7z M44.35,351.84h-8.33l-1.86,3.88h-1.52l6.95-14.13
			c0.14-0.33,0.53-0.48,0.86-0.33c0.15,0.07,0.27,0.18,0.33,0.33l6.98,14.13h-1.48L44.35,351.84z"/>
		<polygon class="st2" points="72.05,341.34 72.05,342.66 67.52,342.66 67.52,355.72 66.17,355.72 66.17,342.66 61.64,342.66 
			61.64,341.34 		"/>
		<path class="st2" d="M94.88,337.38h-1.59l-1.06,2.55h1.19L94.88,337.38z M97.07,350.5l-3.49-7.1l-3.51,7.1H97.07z M87.46,355.72
			h-1.48l6.97-14.13c0.11-0.24,0.35-0.39,0.62-0.38c0.26-0.01,0.49,0.15,0.59,0.38l6.95,14.13h-1.52l-1.87-3.88H89.4L87.46,355.72z"
			/>
		<path class="st2" d="M125.54,354.37l-0.4,1.35h-8.4c-0.37-0.01-0.66-0.31-0.67-0.67v-13.7h1.35v13.03L125.54,354.37L125.54,354.37
			z"/>
		<path class="st2" d="M146.87,342.55c-1.95,0-3.43,0.51-4.45,1.54c-1.02,1.02-1.53,2.5-1.53,4.43c0,1.95,0.51,3.43,1.53,4.45
			c1.02,1.02,2.5,1.53,4.45,1.53c1.95,0,3.43-0.51,4.45-1.53c1.02-1.02,1.52-2.51,1.52-4.45c0-1.93-0.51-3.41-1.52-4.43
			S148.82,342.55,146.87,342.55 M146.87,355.83c-1.05,0.02-2.09-0.14-3.08-0.49c-1.75-0.61-3.12-1.99-3.73-3.73
			c-0.66-2-0.66-4.15,0-6.15c0.61-1.75,1.98-3.13,3.73-3.74c2-0.67,4.16-0.67,6.16,0c0.86,0.3,1.64,0.8,2.29,1.44
			c0.64,0.65,1.14,1.44,1.44,2.3c0.66,2,0.66,4.15,0,6.15c-0.31,0.86-0.8,1.64-1.44,2.29c-0.65,0.64-1.43,1.13-2.29,1.44
			c-0.99,0.35-2.03,0.52-3.08,0.5"/>
		<path class="st2" d="M180.87,347.84v5.62c0,0.18-0.07,0.36-0.19,0.5c-1.31,1.24-3.08,1.86-5.32,1.86
			c-1.05,0.02-2.09-0.14-3.08-0.48c-1.76-0.61-3.14-1.99-3.75-3.75c-0.66-2-0.66-4.15,0-6.15c0.61-1.75,1.98-3.13,3.74-3.74
			c0.99-0.35,2.03-0.52,3.08-0.5c1.92,0,3.5,0.47,4.74,1.4l-0.81,1.07c-1.01-0.76-2.32-1.14-3.93-1.14c-1.95,0-3.43,0.51-4.45,1.54
			c-1.02,1.02-1.53,2.5-1.52,4.44c0,1.95,0.51,3.43,1.52,4.46s2.5,1.54,4.45,1.53c1.75,0,3.14-0.44,4.16-1.32v-4.94L180.87,347.84z"
			/>
		<path class="st2" d="M202.96,342.55c-1.95,0-3.43,0.51-4.45,1.54c-1.02,1.02-1.53,2.5-1.52,4.43c0,1.95,0.51,3.43,1.52,4.45
			s2.5,1.53,4.45,1.53c1.95,0,3.43-0.51,4.45-1.53c1.02-1.02,1.53-2.51,1.52-4.45c0-1.93-0.51-3.41-1.52-4.43
			C206.39,343.06,204.91,342.55,202.96,342.55 M202.96,355.83c-1.05,0.02-2.09-0.14-3.08-0.49c-1.75-0.61-3.12-1.98-3.73-3.73
			c-0.66-2-0.66-4.15,0-6.15c0.61-1.75,1.98-3.13,3.73-3.74c2-0.67,4.16-0.67,6.17,0c1.75,0.61,3.13,1.99,3.73,3.74
			c0.66,2,0.66,4.15,0,6.15c-0.61,1.75-1.99,3.12-3.73,3.73c-0.99,0.35-2.03,0.52-3.08,0.5"/>
		<path class="st2" d="M260.55,355.71h-1.35v-11.44l-5.26,8.67c-0.06,0.1-0.15,0.18-0.25,0.24c-0.1,0.06-0.21,0.09-0.32,0.09
			c-0.23,0-0.45-0.12-0.57-0.33l-5.25-8.67v11.44h-1.34v-13.84c0.01-0.37,0.32-0.67,0.69-0.67c0.08,0,0.15,0.02,0.22,0.04
			c0.14,0.05,0.26,0.15,0.33,0.28l5.91,9.79l5.93-9.79c0.07-0.13,0.19-0.23,0.33-0.28c0.14-0.05,0.29-0.05,0.42,0
			c0.14,0.04,0.26,0.12,0.35,0.23c0.1,0.11,0.15,0.26,0.14,0.41L260.55,355.71L260.55,355.71z"/>
		<path class="st2" d="M286.12,341.34v10.52c0.05,1.14-0.46,2.23-1.37,2.92c-0.91,0.7-2.19,1.05-3.83,1.04
			c-1.64,0-2.91-0.35-3.82-1.04c-0.91-0.69-1.41-1.79-1.36-2.93v-10.51h1.34v10.52c-0.03,0.49,0.11,0.98,0.39,1.38
			c0.26,0.34,0.59,0.62,0.98,0.81c0.4,0.19,0.82,0.32,1.26,0.37c0.8,0.12,1.62,0.12,2.42,0c0.44-0.05,0.86-0.18,1.25-0.37
			c0.39-0.19,0.73-0.47,0.99-0.81c0.29-0.4,0.43-0.89,0.4-1.38v-10.52H286.12L286.12,341.34z"/>
		<path class="st2" d="M310.88,354.37l-0.4,1.35h-8.39c-0.37-0.01-0.66-0.3-0.67-0.67v-13.7h1.34v13.03L310.88,354.37L310.88,354.37
			z"/>
		<polygon class="st2" points="335.35,341.34 335.35,342.66 330.82,342.66 330.82,355.72 329.48,355.72 329.48,342.66 
			324.95,342.66 324.95,341.34 		"/>
		<rect x="350.44" y="341.34" class="st2" width="1.34" height="14.38"/>
		<path class="st2" d="M382.31,355.71h-1.35v-11.44l-5.26,8.67c-0.06,0.1-0.15,0.18-0.25,0.24c-0.1,0.06-0.21,0.08-0.32,0.09
			c-0.23,0-0.45-0.12-0.57-0.33l-5.25-8.67v11.44h-1.35v-13.84c-0.02-0.3,0.18-0.57,0.48-0.64c0.14-0.05,0.29-0.05,0.43,0
			c0.14,0.05,0.26,0.15,0.34,0.28l5.91,9.79l5.93-9.79c0.07-0.13,0.19-0.23,0.33-0.28c0.14-0.05,0.29-0.05,0.42,0
			c0.14,0.04,0.26,0.12,0.35,0.23c0.09,0.11,0.15,0.26,0.14,0.41L382.31,355.71L382.31,355.71L382.31,355.71z"/>
		<path class="st2" d="M408.14,350.49l-3.51-7.1l-3.51,7.1H408.14z M408.79,351.84h-8.33l-1.86,3.88h-1.52l6.93-14.13
			c0.15-0.33,0.53-0.48,0.86-0.33c0.15,0.07,0.26,0.18,0.33,0.33l6.99,14.13h-1.48L408.79,351.84z"/>
		<path class="st2" d="M428.2,348.57h5.41c0.39,0,0.78-0.08,1.14-0.23c0.35-0.15,0.67-0.36,0.94-0.63c0.27-0.27,0.48-0.59,0.63-0.93
			c0.15-0.36,0.23-0.75,0.23-1.14c0.01-0.78-0.3-1.53-0.85-2.08c-0.27-0.26-0.59-0.48-0.94-0.62c-0.36-0.15-0.75-0.23-1.14-0.23
			h-5.41v5.88L428.2,348.57z M437.28,355.72l-4.66-5.8h-4.41v5.8h-1.36v-13.69c0.01-0.37,0.31-0.66,0.67-0.67h6.18
			c0.56,0.01,1.11,0.13,1.62,0.36c0.5,0.23,0.95,0.54,1.33,0.92c0.38,0.39,0.69,0.85,0.9,1.35c0.22,0.52,0.33,1.08,0.33,1.64
			c0,0.52-0.09,1.04-0.28,1.52c-0.36,0.94-1.04,1.72-1.91,2.21c-0.44,0.25-0.92,0.42-1.42,0.49l4.72,5.86L437.28,355.72
			L437.28,355.72z"/>
		<path class="st2" d="M464.87,353.97c-1.31,1.24-3.08,1.86-5.32,1.86c-1.05,0.02-2.09-0.15-3.08-0.5
			c-1.75-0.61-3.12-1.98-3.73-3.73c-0.67-2-0.67-4.16,0-6.15c0.61-1.75,1.98-3.13,3.73-3.74c0.99-0.35,2.03-0.52,3.08-0.5
			c1.92,0,3.5,0.47,4.74,1.4l-0.81,1.07c-1.01-0.76-2.32-1.14-3.93-1.14c-1.95,0-3.43,0.51-4.45,1.54c-1.02,1.02-1.52,2.5-1.52,4.43
			s0.51,3.43,1.52,4.45s2.5,1.54,4.45,1.54c0.85,0.01,1.69-0.12,2.49-0.38c0.7-0.23,1.34-0.62,1.88-1.14L464.87,353.97z"/>
		<path class="st2" d="M489.89,350.49l-3.51-7.1l-3.51,7.1H489.89z M490.55,351.84h-8.33l-1.86,3.88h-1.52l6.95-14.13
			c0.15-0.33,0.53-0.48,0.86-0.33c0.15,0.07,0.26,0.18,0.33,0.33l6.99,14.13h-1.48L490.55,351.84z"/>
	</g>
</g>
</svg>
