<svg id="Capa_1" data-name="Capa 1" xmlns="http://www.w3.org/2000/svg" viewBox="0 0 1718.88 745.73"><defs><style>.cls-1{fill:#219097;}.cls-2{fill:#cdcdcd;}</style></defs><title>Logo_ibizza(2)</title><polygon class="cls-1" points="5.7 0.01 5.7 648.86 62.2 648.86 62.21 648.85 62.21 0.01 5.7 0.01"/><path class="cls-1" d="M237.17,318.44h16.77q72.6,0,115.87,43.28t43.28,115.87v2.8q0,72.58-43.28,115.87T253.94,639.55H237.17V318.44Zm0-315.51h24.2q68.87,0,110.29,41.41t41.42,110.3q0,70.74-41.42,112.61T261.38,309.13h-24.2V2.92h0ZM177.61,0V648.83H307q74.44,0,119.12-44.68T470.8,485q0-78.17-42.81-123.31T314.44,313.79Q385.15,312.86,428,270T470.8,155.56q0-74.43-43.28-118.19A141.63,141.63,0,0,0,363.16,0H177.61Z" transform="translate(0 0.01)"/><polygon class="cls-1" points="552.68 0.01 552.68 648.85 552.68 648.86 612.25 648.86 612.25 648.86 612.25 0.01 552.68 0.01"/><polygon class="cls-1" points="695.09 0.01 695.09 12.24 946.37 12.24 685.78 630.23 685.78 648.85 685.78 648.86 1011.52 648.86 1011.52 630.23 750 630.23 1011.52 12.24 1011.52 0.01 695.09 0.01"/><polygon class="cls-1" points="1045.96 0.01 1045.96 12.24 1297.26 12.24 1036.65 630.23 1036.65 648.85 1036.65 648.86 1362.41 648.86 1362.41 630.23 1100.88 630.23 1362.41 12.24 1362.41 0.01 1045.96 0.01"/><path class="cls-1" d="M1543.9,52.26l77.25,416H1461.07ZM1525.9,0L1397.78,648.84h27.93l31.64-161h167.53l30.71,161h63.29L1597.22,0H1525.9Z" transform="translate(0 0.01)"/><path class="cls-2" d="M44.5,739.14q-6.89,6.57-18.74,6.56a30.91,30.91,0,0,1-10.84-1.76A21.37,21.37,0,0,1,1.76,730.8a34.23,34.23,0,0,1,0-21.68,21.34,21.34,0,0,1,13.16-13.19,31.12,31.12,0,0,1,10.84-1.76q10.15,0,16.71,4.94l-2.84,3.78q-5.34-4-13.86-4-10.28,0-15.65,5.41T4.74,719.92q0,10.29,5.38,15.69T25.77,741a27.06,27.06,0,0,0,8.8-1.35,17.66,17.66,0,0,0,6.62-4Z" transform="translate(0 0.01)"/><path class="cls-2" d="M132.68,726.9l-12.38-25-12.38,25h24.76Zm2.3,4.73H105.63l-6.55,13.66H93.73l24.48-49.76a2.29,2.29,0,0,1,4.19,0L147,745.29h-5.2Z" transform="translate(0 0.01)"/><polygon class="cls-2" points="232.56 694.66 232.56 699.33 216.59 699.33 216.59 745.31 211.86 745.31 211.86 699.33 195.9 699.33 195.9 694.66 232.56 694.66"/><path class="cls-2" d="M313,680.72h-5.61l-3.72,9h4.18Zm7.71,46.19-12.3-25-12.38,25h24.68ZM286.86,745.3h-5.21l24.54-49.77a2.26,2.26,0,0,1,2.17-1.35,2.21,2.21,0,0,1,2.09,1.35l24.48,49.77h-5.35L323,731.63H293.69Z" transform="translate(0 0.01)"/><path class="cls-2" d="M421,740.56l-1.42,4.74H390a2.42,2.42,0,0,1-2.36-2.37V694.66h4.74v45.91H421Z" transform="translate(0 0.01)"/><path class="cls-2" d="M496.14,698.91q-10.28,0-15.66,5.41t-5.38,15.62q0,10.28,5.38,15.69t15.66,5.4q10.29,0,15.66-5.4t5.37-15.69q0-10.21-5.37-15.62t-15.66-5.41m0,46.8A30.92,30.92,0,0,1,485.29,744a21.42,21.42,0,0,1-13.15-13.15,34.35,34.35,0,0,1,0-21.67,21.38,21.38,0,0,1,13.15-13.19,34.29,34.29,0,0,1,21.71,0,21.85,21.85,0,0,1,8.08,5.07,22.08,22.08,0,0,1,5.08,8.12,34.35,34.35,0,0,1,0,21.67,22.11,22.11,0,0,1-5.08,8.08,21.77,21.77,0,0,1-8.08,5.07,30.93,30.93,0,0,1-10.85,1.76" transform="translate(0 0.01)"/><path class="cls-2" d="M615.91,717.57v19.81a2.7,2.7,0,0,1-.68,1.76q-6.91,6.56-18.73,6.56A31,31,0,0,1,585.64,744a21.4,21.4,0,0,1-13.2-13.2,34.36,34.36,0,0,1,0-21.67,21.37,21.37,0,0,1,13.16-13.19,31.25,31.25,0,0,1,10.85-1.76q10.15,0,16.71,4.94l-2.84,3.78q-5.34-4-13.86-4-10.28,0-15.66,5.41t-5.36,15.64q0,10.28,5.37,15.7t15.66,5.4q9.26,0,14.67-4.66V719Z" transform="translate(0 0.01)"/><path class="cls-2" d="M693.74,698.91q-10.29,0-15.67,5.41t-5.36,15.62q0,10.28,5.36,15.69t15.67,5.4q10.28,0,15.66-5.4t5.37-15.69q0-10.21-5.37-15.62t-15.66-5.41m0,46.8A31,31,0,0,1,682.88,744a21.4,21.4,0,0,1-13.15-13.15,34.29,34.29,0,0,1,0-21.67,21.36,21.36,0,0,1,13.15-13.19,34.32,34.32,0,0,1,21.72,0,21.38,21.38,0,0,1,13.15,13.19,34.35,34.35,0,0,1,0,21.67A21.42,21.42,0,0,1,704.6,744a31,31,0,0,1-10.85,1.76" transform="translate(0 0.01)"/><path class="cls-2" d="M896.6,745.29h-4.74V705l-18.52,30.56a2.5,2.5,0,0,1-.89.85,2.27,2.27,0,0,1-1.14.3,2.3,2.3,0,0,1-2-1.15L850.81,705v40.3h-4.72V696.54a2.39,2.39,0,0,1,3.21-2.2,2.29,2.29,0,0,1,1.18,1l20.83,34.48,20.89-34.48a2.31,2.31,0,0,1,1.15-1,2,2,0,0,1,1.49,0,2.5,2.5,0,0,1,1.25.81,2.16,2.16,0,0,1,.51,1.43v48.71Z" transform="translate(0 0.01)"/><path class="cls-2" d="M986.67,694.65v37.06A12.2,12.2,0,0,1,981.83,742q-4.83,3.69-13.48,3.68c-5.78,0-10.26-1.22-13.47-3.68a12.24,12.24,0,0,1-4.79-10.31V694.65h4.73v37.06a7.81,7.81,0,0,0,1.39,4.86,9.54,9.54,0,0,0,3.45,2.85,14,14,0,0,0,4.43,1.32,29.9,29.9,0,0,0,8.52,0,13.9,13.9,0,0,0,4.42-1.32,9.83,9.83,0,0,0,3.49-2.85,7.7,7.7,0,0,0,1.42-4.86V694.65h4.73Z" transform="translate(0 0.01)"/><path class="cls-2" d="M1073.9,740.56l-1.41,4.74h-29.56a2.43,2.43,0,0,1-2.37-2.37V694.66h4.73v45.91h28.61Z" transform="translate(0 0.01)"/><polygon class="cls-2" points="1160.12 694.66 1160.12 699.33 1144.15 699.33 1144.15 745.31 1139.43 745.31 1139.43 699.33 1123.47 699.33 1123.47 694.66 1160.12 694.66"/><rect class="cls-2" x="1213.27" y="694.66" width="4.73" height="50.65"/><path class="cls-2" d="M1325.53,745.29h-4.74V705l-18.52,30.56a2.59,2.59,0,0,1-.89.85,2.33,2.33,0,0,1-1.14.3,2.3,2.3,0,0,1-2-1.15L1279.74,705v40.3H1275V696.54a2.13,2.13,0,0,1,1.69-2.24,2.09,2.09,0,0,1,1.52,0,2.28,2.28,0,0,1,1.19,1l20.83,34.48,20.89-34.48a2.26,2.26,0,0,1,1.15-1,2,2,0,0,1,1.49,0,2.5,2.5,0,0,1,1.25.81,2.22,2.22,0,0,1,.51,1.43v48.75h0Z" transform="translate(0 0.01)"/><path class="cls-2" d="M1416.53,726.9l-12.37-25-12.38,25h24.75Zm2.3,4.73h-29.34l-6.56,13.66h-5.35L1402,695.53a2.3,2.3,0,0,1,4.2,0l24.61,49.76h-5.21Z" transform="translate(0 0.01)"/><path class="cls-2" d="M1487.2,720.14h19.07a10.07,10.07,0,0,0,4-.81,10.59,10.59,0,0,0,3.31-2.23,10.78,10.78,0,0,0,2.23-3.29,9.89,9.89,0,0,0,.81-4,10.19,10.19,0,0,0-3-7.34,10.58,10.58,0,0,0-3.31-2.19,10,10,0,0,0-4-.82h-19.07v20.7Zm32,25.16-16.43-20.42h-15.55V745.3h-4.78V697.08a2.43,2.43,0,0,1,2.37-2.36h21.77a14.36,14.36,0,0,1,5.72,1.28,16.31,16.31,0,0,1,4.7,3.25,14.87,14.87,0,0,1,3.17,4.76,14.72,14.72,0,0,1,1.15,5.78,14.25,14.25,0,0,1-1,5.35,15.28,15.28,0,0,1-6.73,7.8,14,14,0,0,1-5,1.72l16.63,20.63h-6Z" transform="translate(0 0.01)"/><path class="cls-2" d="M1616.37,739.14q-6.91,6.57-18.73,6.56a31,31,0,0,1-10.86-1.76,21.37,21.37,0,0,1-13.15-13.14,34.18,34.18,0,0,1,0-21.68,21.35,21.35,0,0,1,13.15-13.19,31.25,31.25,0,0,1,10.86-1.76q10.13,0,16.7,4.94l-2.85,3.78q-5.33-4-13.85-4-10.29,0-15.66,5.41c-3.59,3.6-5.37,8.82-5.37,15.62s1.79,12.08,5.37,15.69,8.8,5.41,15.66,5.41a27,27,0,0,0,8.78-1.35,17.56,17.56,0,0,0,6.62-4Z" transform="translate(0 0.01)"/><path class="cls-2" d="M1704.54,726.9l-12.37-25-12.38,25h24.75Zm2.3,4.73H1677.5l-6.56,13.66h-5.35l24.47-49.76a2.3,2.3,0,0,1,4.2,0l24.61,49.76h-5.21Z" transform="translate(0 0.01)"/></svg>