<svg id="Capa_1" data-name="Capa 1" xmlns="http://www.w3.org/2000/svg" viewBox="0 0 270 50"><defs><style>.cls-1{fill:#cf4324;}.cls-2{fill:#fff;}</style></defs><rect class="cls-1" x="18.98" y="31.62" width="128.8" height="17.38"/><path class="cls-2" d="M30.65,37.42l-2.92,6.76H26.19l-2.91-6.76H25L27,42.25l2.08-4.83Z"/><path class="cls-2" d="M36.43,42.93v1.25H31.21V37.42h5.1v1.25H32.76v1.46h3.13v1.22H32.76v1.57h3.67Z"/><path class="cls-2" d="M43.87,37.42v6.76H42.59l-3.37-4.11v4.11H37.68V37.42H39l3.35,4.11V37.42Z"/><path class="cls-2" d="M46.87,38.7H44.71V37.43h5.87V38.7H48.42v5.49H46.86V38.7Z"/><path class="cls-2" d="M55.53,42.73H52.4l-.6,1.45H50.2l3-6.76h1.54l3,6.76H56.12l-.6-1.45ZM55,41.55,54,39l-1.06,2.59H55Z"/><path class="cls-2" d="M67.06,39.87c0,1.51-1.13,2.45-2.93,2.45H62.78v1.87H61.22V37.43h2.91c1.8,0,2.93.93,2.93,2.44Zm-1.58,0c0-.74-.49-1.17-1.43-1.17H62.78v2.35h1.27c1,0,1.43-.43,1.43-1.16Z"/><path class="cls-2" d="M67.85,40.8a3.7,3.7,0,1,1,3.69,3.5A3.49,3.49,0,0,1,67.85,40.8Zm5.8,0A2.11,2.11,0,1,0,71.54,43,2.06,2.06,0,0,0,73.65,40.8Z"/><path class="cls-2" d="M80.71,44.18l-1.3-1.89H78v1.89H76.42V37.42h2.91c1.8,0,2.93.93,2.93,2.44A2.21,2.21,0,0,1,80.87,42l1.52,2.18Zm-1.46-5.49H78v2.36h1.27c1,0,1.43-.44,1.43-1.18s-.48-1.17-1.43-1.17Z"/><path class="cls-2" d="M85.81,40.8a3.46,3.46,0,0,1,3.66-3.49,3.51,3.51,0,0,1,2.78,1.19l-1,.93a2.19,2.19,0,0,0-1.7-.78,2.17,2.17,0,1,0,0,4.33,2.17,2.17,0,0,0,1.7-.8l1,.93a3.71,3.71,0,0,1-6.44-2.29Z"/><path class="cls-2" d="M97.62,42.73H94.48l-.6,1.45h-1.6l3-6.76h1.54l3,6.76H98.2l-.6-1.45Zm-.5-1.18L96.06,39,95,41.55h2.13Z"/><path class="cls-2" d="M101.62,38.7H99.46V37.43h5.87V38.7h-2.16v5.49h-1.56V38.7Z"/><path class="cls-2" d="M110.28,42.73h-3.13l-.6,1.45h-1.61l3-6.76h1.54l3,6.76h-1.64l-.6-1.45Zm-.5-1.18L108.72,39l-1.07,2.59h2.13ZM109,36.88h-1.17l1.3-1.4h1.61L109,36.88Z"/><path class="cls-2" d="M113.23,37.42h1.56v5.49h3.38v1.27h-4.94Z"/><path class="cls-2" d="M118.51,40.8a3.7,3.7,0,1,1,3.69,3.5A3.49,3.49,0,0,1,118.51,40.8Zm5.8,0A2.11,2.11,0,1,0,122.2,43,2.06,2.06,0,0,0,124.31,40.8Z"/><path class="cls-2" d="M131.64,40.69h1.43v2.74a4.6,4.6,0,0,1-2.73.87,3.5,3.5,0,1,1,0-7,3.62,3.62,0,0,1,2.82,1.16l-1,.93a2.32,2.32,0,0,0-1.75-.77,2.17,2.17,0,1,0,0,4.34,2.55,2.55,0,0,0,1.22-.29v-2Z"/><path class="cls-2" d="M134.09,40.8a3.7,3.7,0,1,1,3.69,3.5A3.49,3.49,0,0,1,134.09,40.8Zm5.8,0A2.11,2.11,0,1,0,137.78,43,2.06,2.06,0,0,0,139.89,40.8Z"/><path class="cls-1" d="M30.67,8.78V6H28.28V1.86h4.78v3.7L31.64,9a.51.51,0,0,1-.49.31.5.5,0,0,1-.48-.5"/><path class="cls-1" d="M27.34,15.83a11.15,11.15,0,0,1-1.74,6.22,13.23,13.23,0,0,1-4.51,4.32,20.23,20.23,0,0,1-5.43,2.18,29.42,29.42,0,0,1-7,.74c-1.25,0-2.62,0-4.12-.05L2,29.19c0-.14,0-1.56,0-4.28s0-5.89,0-9.51c0-1.51,0-3.39,0-5.65S2,5,2,2.17l2.68,0,3.3,0a35.92,35.92,0,0,1,7.72.74,18.27,18.27,0,0,1,5.84,2.36,12.46,12.46,0,0,1,4.37,4.52,12.6,12.6,0,0,1,1.42,6.07ZM20.5,15.6a7.77,7.77,0,0,0-.89-3.69,7.29,7.29,0,0,0-2.78-2.82,11.07,11.07,0,0,0-3.7-1.42,19.15,19.15,0,0,0-3.8-.39H8.61c0,1.37,0,2.67,0,3.91v6.45q0,2.34,0,6.41h.67a17.75,17.75,0,0,0,3.83-.46,11.88,11.88,0,0,0,3.33-1.21,8.41,8.41,0,0,0,3-2.88,7.45,7.45,0,0,0,1-3.9Z"/><path class="cls-1" d="M58.32,11.76A8.51,8.51,0,0,1,56.6,17a10.05,10.05,0,0,1-4.68,3.36,16.81,16.81,0,0,1-3.7.92,29.31,29.31,0,0,1-4.14.32l0,7.55H37.46c0-1.22,0-2.89,0-5s0-5.31,0-9.56c0-1.52,0-3.36,0-5.54s0-4.48-.06-6.92l2.16,0h2.2a47.43,47.43,0,0,1,6.86.38,15.55,15.55,0,0,1,4.46,1.33A9.31,9.31,0,0,1,57,7a8.3,8.3,0,0,1,1.35,4.74Zm-6.85.42a5.09,5.09,0,0,0-.7-2.71,5,5,0,0,0-2.1-1.84,5.81,5.81,0,0,0-2-.59,19.52,19.52,0,0,0-2.18-.11h-.6c0,.19,0,1,0,2.35s0,2.5,0,3.36v5h.64a14.51,14.51,0,0,0,2.17-.18,6.07,6.07,0,0,0,2-.57,5.27,5.27,0,0,0,2.15-1.79,5.18,5.18,0,0,0,.73-2.92Z"/><path class="cls-1" d="M68.62,29.2H62c0-1.14,0-2.8,0-5s0-5.1,0-8.81c0-1.57,0-3.54,0-5.93S62,4.67,62,2.17h6.66q0,2.77-.05,6.37c0,2.41,0,4.54,0,6.41,0,3.81,0,6.75,0,8.84s0,3.88.05,5.42Z"/><path class="cls-1" d="M92.27,21.31a6.3,6.3,0,0,1-1.16,3.82A8.79,8.79,0,0,1,88,27.78a14.35,14.35,0,0,1-4.32,1.38,31,31,0,0,1-5.18.44c-1.26,0-2.4,0-3.4-.07s-2.49-.09-2.81-.11L72.47,24c.16,0,.78.07,1.84.13s2,.09,2.87.09a20.67,20.67,0,0,0,2.36-.16,15,15,0,0,0,2.35-.44,3.87,3.87,0,0,0,1.78-1,2.14,2.14,0,0,0,.51-1.47,2.38,2.38,0,0,0-.56-1.62,6.72,6.72,0,0,0-1.93-1.37c-.56-.28-1.32-.64-2.28-1.07a19.9,19.9,0,0,1-2.47-1.29,7.76,7.76,0,0,1-2.83-2.69,6.63,6.63,0,0,1-.85-3.31A6.1,6.1,0,0,1,73.89,7a6.83,6.83,0,0,1,1.68-2.12A10.8,10.8,0,0,1,79.9,2.64a23.73,23.73,0,0,1,6.46-.79c1.19,0,2.2,0,3,.06S91.72,2,91.94,2L91.7,7.42c-.33,0-.86,0-1.59-.11s-1.63-.09-2.72-.09a15,15,0,0,0-2.16.16,11.58,11.58,0,0,0-2,.49,3.32,3.32,0,0,0-1.4.85,2,2,0,0,0-.51,1.37,2.08,2.08,0,0,0,.57,1.4,6.8,6.8,0,0,0,2,1.41c.62.3,1.34.65,2.17,1s1.63.79,2.42,1.25a8.1,8.1,0,0,1,2.86,2.65,6.4,6.4,0,0,1,.94,3.47Z"/><path class="cls-1" d="M121.7,27.59l-6.57,2.21c-.14-.44-.49-1.41-1-2.93s-1.2-3.21-2-5.1H101.88c-.79,1.92-1.45,3.64-2,5.14s-.89,2.47-1,2.89l-6.18-2.11q.54-1.22,4.2-9.62t7-16.11h6.82q3.46,8.11,7.11,16.56t3.91,9.07Zm-11.14-10L108.88,13c-.61-1.65-1.21-3.27-1.82-4.86H107c-.52,1.31-1.12,2.92-1.83,4.84s-1.27,3.45-1.71,4.55v0h7.12v0Z"/><path class="cls-1" d="M148.43,27.36l-6.15,2.4q-.75-1.08-2.94-3.89t-6.66-8.7l.1-.4a7.85,7.85,0,0,0,1.76-.69,7.14,7.14,0,0,0,1.81-1.25,5.41,5.41,0,0,0,1.13-1.57,5.21,5.21,0,0,0,.38-2.13,3.84,3.84,0,0,0-2.37-3.63A5.85,5.85,0,0,0,133.62,7c-.65-.06-1.27-.09-1.88-.09h-1.21c0,1.6,0,3.23,0,4.91s0,3.18,0,4.51c0,2.2,0,4.59,0,7.2s0,4.49,0,5.64h-6.66c0-1.06,0-2.63,0-4.69s0-5.11,0-9.15c0-1.08,0-2.62,0-4.62s0-4.86-.07-8.56l2.42,0c1.23,0,2.38,0,3.44,0,2,0,3.73.06,5.2.18a17.85,17.85,0,0,1,4.16.85,8.22,8.22,0,0,1,4.15,2.74,6.54,6.54,0,0,1,1.36,4.07,7,7,0,0,1-1.43,4.42,11.47,11.47,0,0,1-2.92,2.76v.12c1.39,1.76,2.88,3.56,4.46,5.38a47.37,47.37,0,0,1,3.69,4.75Z"/></svg>