<svg id="Capa_1" data-name="Capa 1" xmlns="http://www.w3.org/2000/svg" viewBox="0 0 1713.18 648.86"><defs><style>.cls-1{fill:#219097;}</style></defs><title>Logo_ibizza(3)</title><polygon class="cls-1" points="0 0.01 0 648.86 56.5 648.86 56.51 648.85 56.51 0.01 0 0.01"/><path class="cls-1" d="M237.17,318.44h16.77q72.6,0,115.87,43.28t43.28,115.87v2.8q0,72.58-43.28,115.87T253.94,639.55H237.17V318.44Zm0-315.51h24.2q68.87,0,110.29,41.41t41.42,110.3q0,70.74-41.42,112.61T261.38,309.13h-24.2V2.92h0ZM177.61,0V648.83H307q74.44,0,119.12-44.68T470.8,485q0-78.17-42.81-123.31T314.44,313.79Q385.15,312.86,428,270T470.8,155.56q0-74.43-43.28-118.19A141.63,141.63,0,0,0,363.16,0H177.61Z" transform="translate(-5.7 0.01)"/><polygon class="cls-1" points="546.98 0.01 546.98 648.85 546.98 648.86 606.55 648.86 606.55 648.86 606.55 0.01 546.98 0.01"/><polygon class="cls-1" points="689.39 0.01 689.39 12.24 940.67 12.24 680.08 630.23 680.08 648.85 680.08 648.86 1005.82 648.86 1005.82 630.23 744.3 630.23 1005.82 12.24 1005.82 0.01 689.39 0.01"/><polygon class="cls-1" points="1040.26 0.01 1040.26 12.24 1291.56 12.24 1030.95 630.23 1030.95 648.85 1030.95 648.86 1356.71 648.86 1356.71 630.23 1095.18 630.23 1356.71 12.24 1356.71 0.01 1040.26 0.01"/><path class="cls-1" d="M1543.9,52.26l77.25,416H1461.07ZM1525.9,0L1397.78,648.84h27.93l31.64-161h167.53l30.71,161h63.29L1597.22,0H1525.9Z" transform="translate(-5.7 0.01)"/></svg>